<?xml version="1.0" encoding="UTF-8"?><svg id="Calque_2" xmlns="http://www.w3.org/2000/svg" viewBox="0 0 895.93 835.43"><defs><style>.cls-1{fill:#1d1d1b;}</style></defs><g id="Calque_1-2"><path class="cls-1" d="M36.6,787.35c-91.99-103.39,10.74-342.81,75-453C235.33,122.18,419.47,40.97,480.6,24.35c31.33-8.52,64.41-13.65,64.41-13.65,6.89-1.72,87.28-12.8,149.59-10.35,70.06,2.75,122.9,4.82,161,44,38.57,39.65,39.94,94.6,40.28,108.04,1.25,50-18.87,86.56-29.91,104.55-57.87,94.29-176.66,124.32-234.83,133.82-7.08,1.16-10.84-8.04-4.98-12.18,19.97-14.12,43.18-33.01,66.45-57.74,24.69-26.25,52.21-55.49,69-100,6.55-17.37,24.3-64.42,19.69-108.14-1.97-12.92-6.23-22.82-11.09-30.46-26.02-40.86-74.13-54.51-152.6-39.33-11.57,2.24-19.81,12.55-19.54,24.33l.54,23.55V779.32c0,16.85-13.66,30.52-30.52,30.52h-54.84c-16.9,0-30.59-13.74-30.52-30.65l2.94-685.93c0-.38-.03-.77-.09-1.15,0,0-.89-8.19-8.33-15.08-8.15-7.55-201.43,75.74-320.65,288.31-13.33,23.76-145.11,275.55-67,364,.49,.55,.98,1.1,1.49,1.64,28.91,31,77.2,32.83,109.72,5.64,42.78-35.77,61.5-96.88,51.79-158.79-20-127.49-102.51-148.9-91-160.49,7.86-7.91,72.6,24.71,100,51,73.22,70.26,75.11,206.09,18.61,280.43-3.85,5.06-59.02,94.73-149.61,86.06-37.1-3.55-72.15-22.93-94-47.49Z"/></g></svg>